<svg id="Layer_1" data-name="Layer 1" xmlns="http://www.w3.org/2000/svg" viewBox="0 0 3855.33 610.48"><defs><style>.cls-1{fill:#e75370;}.cls-2{fill:#dd368c;}</style></defs><path class="cls-1" d="M49.71,21.13a4.44,4.44,0,0,0-5-.87,4.55,4.55,0,0,0-2.53,4.19V528A102.31,102.31,0,0,0,144.47,630.32h0V260.57L281.85,402,144.47,115.88Z" transform="translate(-42.16 -19.84)"/><path class="cls-1" d="M590.78,20.25a4.45,4.45,0,0,0-5,.88L491,115.88,353.62,402,491,260.57V630.32h0A102.32,102.32,0,0,0,593.32,528V24.43A4.57,4.57,0,0,0,590.78,20.25Z" transform="translate(-42.16 -19.84)"/><polygon class="cls-2" points="106.45 33.42 275.58 385.58 444.71 33.42 275.58 207.46 106.45 33.42"/><circle class="cls-2" cx="275.58" cy="100.5" r="51.54"/><path class="cls-2" d="M855.29,567.51H641.94V557l15.76-.65q19-2,23-9.19t3.95-31.51l.66-30.19V328.59l-.66-26.91q-1.32-15.75-3.94-23.63t-23.63-9.84l-17.72-1.32v-10.5H812V485.46l.66,30.19q0,23.64,3.94,31.18t23,9.52l15.75.65Zm-172-420.73q0-25.6,18.8-43.65t45.19-18q27,0,45.85,17.4t18.8,44.3q0,26.26-18.8,44.3t-45.85,18q-26.39,0-45.19-18T683.33,146.78Z" transform="translate(-42.16 -19.84)"/><path class="cls-2" d="M888.77,431.64h8.53q17.06,53.16,34.13,78.11t37.08,37.41q20,12.48,48.9,12.47,16.39,0,28.23-8.86t11.81-24.62q0-20.32-9.19-30.19t-28.88-21.33q-19.7-11.47-45.62-25.6t-43.31-27.56q-17.4-13.46-26.92-30.53T894,351.56q0-48.56,36.75-75.15t89.92-26.58A122.83,122.83,0,0,1,1068,259q21.66,11.16,44,21.66,9.18,0,15.75-11.16t6.56-26.26h9.19V375.19h-8.53q-5.26-15.75-13.13-34.78a172.81,172.81,0,0,0-22.64-38.4q-14.78-19.35-31.18-29.87t-42-10.5q-18.39,0-29.87,8.86t-11.49,22q0,15.11,8.21,23.63t24,18.05q15.75,9.52,43,24.29t48.9,29.2a130.92,130.92,0,0,1,36.1,35.77q14.43,21.35,14.44,48.9,0,50.55-38.4,76.14t-92.88,25.6a135.78,135.78,0,0,1-55.13-11.82q-26.26-13.11-51.85-26.91-8.53,0-15.1,13.79A84.18,84.18,0,0,0,898,578.66h-9.19Z" transform="translate(-42.16 -19.84)"/><path class="cls-2" d="M1348.2,305q12.39-26.23,34.55-40.69T1446,249.83q45.54,0,80.53,24.61t35,63.34V485.46l.65,30.19q0,23.64,3.94,31.18t23,9.52l14.44.65v10.51H1400.33V557l8.47-.65q17.57,0,21.49-7.88t3.91-32.82l.65-30.19V351.56l-.65-26.91q0-27.57-9.12-39.38t-27.35-11.81q-22.15,0-31.59,14.44a159.32,159.32,0,0,0-15.3,29.53v168l.65,30.19q0,25.61,3.58,33.15t21.82,7.55l8.47.65v10.51H1181.5V557l15.09-.65q19-2,23-9.19t3.93-31.51l.66-30.19V161.22l-.66-26.91q0-17.72-5.57-24.61t-24-8.86L1169,99.52V89h181.81V244.58q0,21.66-.66,36.43T1348.2,305Z" transform="translate(-42.16 -19.84)"/><path class="cls-2" d="M1967.8,412q0,69.57-52.83,115.85t-124.38,46.27q-75.49,0-126.35-46.27T1613.37,412q0-69.57,51.53-115.85t125.69-46.27q72.86,0,125,45.94T1967.8,412Zm-130.61-.66q0-9.18-1.31-36.75t-1.32-32.82q0-35.45-10.83-58.42t-33.8-23q-21,0-32.16,24t-11.16,57.43q0,12.48-1,30.52T1744,411.29q0,9.21,1.31,37.74t1.31,33.15q0,35.44,10.83,58.41t33.15,23q21.66,0,32.82-23.63t11.15-57.76q0-13.12.66-31.18T1837.19,411.29Z" transform="translate(-42.16 -19.84)"/><path class="cls-1" d="M2192.27,318.75q0,103.71,20.35,172.29t70.89,68.59q24.93,0,38.07-9.85t16.4-22a130.31,130.31,0,0,0,3.94-28.56q.64-16.39.66-40.69V433q0-28.21-2-38.07-2-21.66-8.86-29.53t-21.33-9.85a250.39,250.39,0,0,0-26.26-2.3q-11.8-.31-21.66-1v-10.5h307.18v10.5l-30.19,2q-20.35,2-27.24,9.52t-8.86,29.86l-1.32,30.85v86l1.32,59.07h-9.85q-8.53-19-29.86-34.78t-46.93-15.76q-23,0-65.64,28.23t-112.89,28.22q-97.16,0-163.43-70.23t-66.3-176.56q0-111.57,72.86-179.18T2267.1,81.8a257.81,257.81,0,0,1,116.83,27.57q55.14,27.57,61.7,28.88,19,0,25.6-14.11t12.47-40.37h13.12v212h-11.15q-19.7-81.37-65.31-137.83t-116.51-56.45q-56.45,0-84,65.31T2192.27,318.75Z" transform="translate(-42.16 -19.84)"/><path class="cls-1" d="M2578.21,567.51V557l17.72-.65q19-2,23-9.19t3.94-31.51l.66-30.19V328.59l-.66-26.91q-1.32-15.75-3.94-23.63t-23.63-9.84l-17.06-1.32v-10.5h170.65v55.14q4.5-11.82,19.31-35.45t68.64-23.63q31.52,0,53.5,22t22,52.18q0,30.19-20.68,50.21t-50.87,20a59.79,59.79,0,0,1-43-17.39q-18.06-17.38-18.05-39.71a75.84,75.84,0,0,1,5.91-30.19q6.55-12.46,13.13-25.6c-2.2-3.06-4.38-4.6-6.57-4.6q-17,0-29.48,20.35t-12.53,38.07V489.4l.65,32.82q0,18.38,4.53,24.94t22.66,8.53l19.42,1.31v10.51Z" transform="translate(-42.16 -19.84)"/><path class="cls-1" d="M3249.39,535.34q15.54,0,21.69-19.45t6.15-46.5h9.19q0,57.93-20.68,76.37t-37.08,23.38q-16.41,4.92-42,4.93-28.23,0-50.21-14.46t-26.58-38.78q-10.52,26.61-35.12,39.93t-64,13.31q-42,0-68.26-23t-26.26-63.81q0-32.88,16.41-52.94t33.48-24.67q17.05-4.61,52.51-7.9t52.18-7.56q16.72-4.29,24-9.21T3102,368.2l-.64-59.85q0-25.65-6.5-36.83t-27.29-11.19q-13,0-21.78,5.94T3037,281.44q0,7.26,14,18.13t14,32.65q0,20.44-18.11,36.28T2988,384.32q-22.39,0-39.18-12.19T2932,339.49q0-40.87,45.72-65.26t108.86-24.4q53.29,0,98,22.09t44.74,68.24v151q0,21.1,3.88,32.32Q3236.44,535.35,3249.39,535.34ZM3102,515.64V390.25l-1.95-.66q-5.84,7.88-21.75,14.78t-22.07,13.45q-6.16,6.57-9.73,25.28a204.47,204.47,0,0,0-3.57,38.4q0,29.55,4.54,47.28t20.78,17.72q12.33,0,21.74-9.84T3102,515.64Z" transform="translate(-42.16 -19.84)"/><path class="cls-1" d="M3897.49,567.51H3699.54V557q22.77,0,27-7.22t4.23-34.13l.65-30.19V352.88l-.65-26.91q0-28.22-6.84-40.7t-24.4-12.47q-11.72,0-25.05,10.83T3656.6,326V485.46l.65,30.19q0,21,2.28,30.2t25,11.15v10.51H3498V557q22.13,0,26.68-7.22t4.56-34.13l.65-30.19V352.88l-.65-26.91q0-28.22-6.84-40.7T3498,272.8q-22.12,0-30.25,14.44a146.07,146.07,0,0,0-12.69,29.54V485.46l.65,30.19q0,21,2.27,30.2T3483.08,557v10.51H3286.42V557l14.44-.65q19-2,23-9.19t3.94-31.51l.65-30.19V328.59l-.65-26.91q-1.32-15.75-3.94-23.63t-23.63-9.84l-15.1-1.32v-10.5h167.38v49.23q5.89-18.37,23.3-37.09t70.56-18.7q36.75,0,64,15.42t40.37,46.28q3.27-11.82,17.39-36.76t79.75-24.94q44.63,0,77.45,24.94t32.81,64.32V485.46l.66,30.19q0,25,3.61,31.51t23.3,9.19l11.82.65Z" transform="translate(-42.16 -19.84)"/></svg>